<svg xmlns="http://www.w3.org/2000/svg" style="display:none;"><symbol viewBox="0 0 512 512" id="zs-arrow-left-style01"><g><path d="M118.6,230.7L338.7,10.5c14-14,36.7-14,50.7,0c14,14,14,36.7,0,50.7L194.6,256l194.8,194.8c14,14,14,36.7,0,50.7 c-14,14-36.7,14-50.7,0L118.6,281.3c-7-7-10.5-16.2-10.5-25.3C108.1,246.8,111.6,237.7,118.6,230.7z"/></g></symbol><symbol viewBox="0 0 32 32" id="zs-arrow-left-style02"><path id="arrow-left-style2-Arrow_Forward" d="M0,16c0,0.3,0.1,0.5,0.3,0.7l9.9,10c0.4,0.4,1,0.4,1.4,0c0.4-0.4,0.4-1,0-1.4L3.4,17H31 c0.6,0,1-0.5,1-1s-0.4-1-1-1H3.4l8.2-8.3c0.4-0.4,0.4-1,0-1.4c-0.4-0.4-1-0.4-1.4,0l-9.9,10C0.1,15.5,0,15.7,0,16z"/></symbol><symbol viewBox="0 0 512 512" id="zs-arrow-left-style03"><g><path d="M86,256l193.7,193.6c13.9,13.9,13.9,36.5,0,50.4c-13.9,13.9-36.5,13.9-50.4,0L10.4,281.2C3.5,274.2,0,265.1,0,256 c0-9.1,3.5-18.2,10.4-25.2L229.3,12C243.2-2,265.8-2,279.7,12c13.9,13.9,13.9,36.5,0,50.4L86,256z M501.6,62.4 c13.9-13.9,13.9-36.5,0-50.4C487.6-2,465.1-2,451.2,12L232.3,230.8c-7,7-10.4,16.1-10.4,25.2c0,9.1,3.5,18.2,10.4,25.2l218.9,218.9 c13.9,13.9,36.5,13.9,50.4,0c13.9-13.9,13.9-36.5,0-50.4L307.9,256L501.6,62.4z"/></g></symbol><symbol viewBox="0 0 512 512" id="zs-arrow-left-style04"><g><g id="arrow-left-style4-arrow-drop-up"><polygon points="384,512 128,256 384,0 &#9;&#9;"/></g></g></symbol><symbol viewBox="0 0 512 512" id="zs-arrow-right-style01"><g><path d="M390.4,281.3L170.3,501.5c-14,14-36.7,14-50.7,0c-14-14-14-36.7,0-50.7L314.4,256L119.6,61.2c-14-14-14-36.7,0-50.7 c14-14,36.7-14,50.7,0l220.2,220.1c7,7,10.5,16.2,10.5,25.3C400.9,265.2,397.4,274.3,390.4,281.3z"/></g></symbol><symbol viewBox="0 0 32 32" id="zs-arrow-right-style02"><path id="arrow-right-style2-Arrow_Forward" d="M32,16c0-0.3-0.1-0.5-0.3-0.7l-9.9-10c-0.4-0.4-1-0.4-1.4,0c-0.4,0.4-0.4,1,0,1.4 l8.2,8.3H1c-0.6,0-1,0.5-1,1s0.4,1,1,1h27.6l-8.2,8.3c-0.4,0.4-0.4,1,0,1.4c0.4,0.4,1,0.4,1.4,0l9.9-10C31.9,16.5,32,16.3,32,16z"/></symbol><symbol viewBox="0 0 512 512" id="zs-arrow-right-style03"><g><path d="M426,256L232.3,62.4c-13.9-13.9-13.9-36.5,0-50.4c13.9-13.9,36.5-13.9,50.4,0l218.9,218.9c7,7,10.4,16.1,10.4,25.2 c0,9.1-3.5,18.2-10.4,25.2L282.7,500c-13.9,13.9-36.5,13.9-50.4,0c-13.9-13.9-13.9-36.5,0-50.4L426,256z M10.4,449.6 c-13.9,13.9-13.9,36.5,0,50.4c13.9,13.9,36.5,13.9,50.4,0l218.9-218.9c7-7,10.4-16.1,10.4-25.2c0-9.1-3.5-18.2-10.4-25.2L60.8,11.9 C46.9-2,24.4-2,10.4,11.9c-13.9,13.9-13.9,36.5,0,50.4L204.1,256L10.4,449.6z"/></g></symbol><symbol viewBox="0 0 512 512" id="zs-arrow-right-style04"><g><g id="arrow-right-style4-arrow-drop-up"><polygon points="128,0 384,256 128,512 &#9;&#9;"/></g></g></symbol></svg>